<?xml version="1.0" standalone="no"?>
<!DOCTYPE svg PUBLIC "-//W3C//DTD SVG 20010904//EN"
 "http://www.w3.org/TR/2001/REC-SVG-20010904/DTD/svg10.dtd">
<svg version="1.0" xmlns="http://www.w3.org/2000/svg"
 width="732.000000pt" height="732.000000pt" viewBox="0 0 732.000000 732.000000"
 preserveAspectRatio="xMidYMid meet">
<metadata>
Created by potrace 1.14, written by Peter Selinger 2001-2017
</metadata>
<g transform="translate(0.000000,732.000000) scale(0.100000,-0.100000)"
fill="#000000" stroke="none">
<path d="M6235 7129 c-22 -5 -45 -10 -52 -12 -12 -3 -203 -115 -268 -158 -22
-14 -56 -35 -75 -45 -19 -10 -37 -22 -40 -25 -3 -3 -70 -45 -150 -93 -80 -47
-154 -92 -164 -99 -131 -81 -157 -97 -162 -97 -4 0 -65 29 -138 64 -167 81
-223 106 -316 140 -41 15 -82 30 -90 33 -8 4 -17 7 -20 8 -3 1 -36 11 -75 24
-38 12 -78 24 -87 26 -9 2 -50 13 -90 24 -64 18 -117 30 -208 47 -90 17 -150
26 -185 30 -22 2 -50 6 -62 8 -69 14 -553 29 -577 18 -4 -3 -34 -6 -65 -8 -72
-5 -166 -13 -166 -14 0 -1 -13 -3 -30 -5 -16 -3 -46 -7 -65 -10 -19 -3 -46 -7
-60 -9 -42 -7 -93 -17 -135 -27 -74 -18 -80 -19 -105 -24 -14 -3 -56 -14 -95
-25 -38 -12 -74 -23 -80 -24 -5 -2 -17 -6 -25 -9 -8 -3 -40 -13 -70 -22 -30
-9 -68 -22 -85 -29 -16 -7 -68 -28 -115 -46 -47 -19 -88 -38 -92 -44 -4 -6 -8
-7 -8 -3 0 4 -10 2 -23 -5 -12 -7 -24 -13 -27 -13 -15 -3 -105 -51 -108 -57
-2 -5 -12 -8 -22 -8 -9 0 -23 -6 -29 -14 -7 -8 -23 -17 -36 -20 -14 -4 -25
-11 -25 -16 0 -6 -6 -10 -13 -10 -16 0 -268 -160 -324 -206 -23 -19 -44 -34
-47 -34 -3 0 -14 -8 -25 -17 -10 -10 -28 -25 -39 -33 -105 -79 -298 -261 -411
-389 -31 -35 -63 -71 -71 -80 -8 -9 -31 -37 -50 -61 -19 -25 -37 -47 -40 -50
-5 -4 -91 -123 -128 -177 -7 -10 -32 -49 -56 -88 -25 -38 -48 -75 -53 -80 -4
-6 -9 -17 -11 -25 -2 -8 -7 -17 -11 -20 -10 -6 -181 -351 -185 -371 -1 -8 -10
-31 -19 -53 -9 -21 -17 -41 -17 -43 0 -3 -6 -19 -14 -36 -12 -27 -44 -120 -53
-152 -1 -5 -14 -48 -28 -95 -28 -95 -25 -83 -58 -240 -25 -119 -35 -177 -43
-245 -2 -22 -6 -53 -9 -70 -23 -144 -24 -547 0 -746 14 -126 23 -181 45 -289
21 -101 23 -111 40 -175 6 -22 12 -47 14 -55 2 -8 12 -42 22 -75 10 -33 18
-62 19 -65 0 -3 9 -30 20 -60 11 -30 20 -57 20 -60 1 -3 5 -14 10 -25 4 -11
21 -54 37 -95 16 -41 36 -85 44 -97 8 -13 12 -23 9 -23 -3 0 4 -19 16 -42 12
-24 22 -45 22 -48 0 -3 11 -22 24 -42 13 -21 20 -38 17 -38 -4 0 -1 -8 7 -17
8 -10 25 -38 38 -63 14 -25 51 -88 84 -140 33 -52 64 -104 71 -115 6 -11 13
-22 16 -25 3 -3 39 -50 79 -105 107 -143 159 -203 311 -355 189 -189 278 -265
465 -394 61 -42 115 -79 121 -83 12 -9 39 -25 103 -61 25 -14 62 -35 81 -47
40 -24 219 -111 300 -145 30 -13 74 -31 97 -41 23 -10 86 -33 140 -50 54 -17
107 -34 118 -39 19 -8 55 -18 100 -27 27 -6 38 -9 55 -16 8 -3 40 -11 70 -17
30 -5 66 -13 80 -16 14 -3 34 -7 45 -9 97 -16 158 -25 200 -31 28 -3 61 -7 75
-9 157 -21 545 -21 705 1 17 2 54 6 84 10 30 3 64 8 75 10 12 2 35 6 51 9 17
3 44 8 60 12 17 3 39 7 50 9 135 17 527 144 713 230 29 13 57 24 62 24 6 0 10
5 10 10 0 6 6 10 13 10 12 0 59 23 157 77 197 109 370 228 575 398 62 50 297
286 350 349 22 27 45 53 51 60 50 53 192 252 272 381 130 208 249 463 327 701
20 60 40 123 46 139 10 30 13 39 29 110 40 176 56 257 65 324 3 23 7 55 10 70
28 166 34 558 11 766 -9 79 -18 148 -22 170 -3 11 -7 36 -9 55 -2 19 -7 46
-10 60 -2 14 -10 50 -16 80 -63 316 -200 676 -371 976 l-58 101 0 752 c0 414
-4 760 -9 769 -35 71 -49 92 -90 129 -25 23 -49 39 -53 37 -4 -3 -8 0 -8 5 0
6 -3 10 -7 10 -5 -1 -10 -1 -13 1 -3 1 -16 3 -30 6 -14 2 -34 6 -45 8 -11 2
-38 -1 -60 -5z"/>
</g>
</svg>
